<svg width="50" height="54" viewBox="0 0 50 54" fill="none" xmlns="http://www.w3.org/2000/svg">
<g clip-path="url(#clip0_691_958)">
<path d="M0 25C0 11.1929 11.1929 0 25 0V0C38.8071 0 50 11.1929 50 25V26.2933C50 40.1004 38.8071 51.2933 25 51.2933V51.2933C11.1929 51.2933 0 40.1004 0 26.2933V25Z" fill="url(#paint0_linear_691_958)"/>
<path d="M30.1667 29.7501V31.8018C30.1667 34.5375 34 35.7343 34 35.7343C34 35.7343 29.5833 39.1539 25 39.1539C20.4167 39.1539 16 35.7343 16 35.7343C16 35.7343 19.8635 34.5375 19.8333 31.8018C19.8032 29.0662 19.8233 27.459 19.8032 22.7722C17.4145 19.5959 17.5678 17.4642 18.874 15.9651C23.25 10.9426 35.1667 12.6524 35.1667 12.6524C35.1667 12.6524 36.2787 24.9615 33.75 28.5533C32.6667 30.0921 30.1667 29.7501 30.1667 29.7501Z" fill="url(#paint1_linear_691_958)"/>
<g style="mix-blend-mode:multiply">
<path d="M30.1666 29.7501C26.5 29.3227 24.3333 27.6984 24.3333 27.6984C25.7012 29.7745 27.7859 31.2409 30.1666 31.8018V29.7501Z" fill="#FFDBC9"/>
</g>
<path d="M42.5 40.9163C44.0867 44.2259 45 51.8589 45 51.8589H5C5 51.8589 5.91367 44.2251 7.5 40.9163C9.08633 37.6075 18.35 34.5387 18.35 34.5387C20.1355 38.299 29.9347 38.299 31.6452 34.5375C31.6452 34.5375 40.9133 37.6067 42.5 40.9163Z" fill="url(#paint2_linear_691_958)"/>
<path d="M24.3333 47.5318C24.3333 47.3965 24.3724 47.2643 24.4457 47.1518C24.5189 47.0394 24.623 46.9517 24.7449 46.9C24.8667 46.8482 25.0007 46.8346 25.13 46.861C25.2594 46.8874 25.3781 46.9526 25.4714 47.0482C25.5646 47.1439 25.6281 47.2657 25.6538 47.3984C25.6796 47.531 25.6664 47.6686 25.6159 47.7935C25.5654 47.9185 25.48 48.0253 25.3704 48.1005C25.2607 48.1756 25.1318 48.2157 25 48.2157C24.8232 48.2157 24.6536 48.1437 24.5286 48.0154C24.4036 47.8871 24.3333 47.7132 24.3333 47.5318ZM24.3333 44.1123C24.3333 43.977 24.3724 43.8448 24.4457 43.7323C24.5189 43.6198 24.623 43.5322 24.7449 43.4804C24.8667 43.4286 25.0007 43.4151 25.13 43.4415C25.2594 43.4679 25.3781 43.533 25.4714 43.6287C25.5646 43.7243 25.6281 43.8462 25.6538 43.9788C25.6796 44.1115 25.6664 44.249 25.6159 44.374C25.5654 44.4989 25.48 44.6058 25.3704 44.6809C25.2607 44.7561 25.1318 44.7962 25 44.7962C24.8232 44.7962 24.6536 44.7241 24.5286 44.5958C24.4036 44.4676 24.3333 44.2936 24.3333 44.1123ZM24.3333 40.6927C24.3333 40.5574 24.3724 40.4252 24.4457 40.3127C24.5189 40.2003 24.623 40.1126 24.7449 40.0608C24.8667 40.0091 25.0007 39.9955 25.13 40.0219C25.2594 40.0483 25.3781 40.1135 25.4714 40.2091C25.5646 40.3047 25.6281 40.4266 25.6538 40.5593C25.6796 40.6919 25.6664 40.8295 25.6159 40.9544C25.5654 41.0794 25.48 41.1862 25.3704 41.2614C25.2607 41.3365 25.1318 41.3766 25 41.3766C24.8232 41.3766 24.6536 41.3046 24.5286 41.1763C24.4036 41.048 24.3333 40.8741 24.3333 40.6927V40.6927Z" fill="white"/>
<path d="M21.8592 17.6464C21.3292 17.1795 20.6852 16.8651 19.7748 17.3503C17.6167 18.4998 19.25 22.911 21.1667 22.911C21.6667 22.911 21.9153 24.522 19.6892 25.6466C19.6892 23.8514 17.0225 19.406 16.7892 15.3586C14.1058 14.3336 14.7725 10.2323 16.6147 10.2323C16.3207 6.47288 22.1892 4.53092 24.4615 6.68848C26.7725 3.84701 32.6058 5.30032 32.958 7.76547C36.9692 5.56892 39.6058 11.883 35.85 14.3341C34.3045 15.3429 30.6892 15.7267 25.4703 15.7267C24.6825 15.7267 24.2412 15.9274 24.4615 16.9268C24.888 18.8633 23.8978 20.083 21.8592 17.6464Z" fill="url(#paint3_linear_691_958)"/>
</g>
<path d="M48.3889 46.7339C48.3889 50.247 45.6161 53.073 42.2223 53.073C38.8285 53.073 36.0556 50.247 36.0556 46.7339C36.0556 43.2208 38.8285 40.3948 42.2223 40.3948C45.6161 40.3948 48.3889 43.2208 48.3889 46.7339Z" fill="#67C47E" stroke="white"/>
<defs>
<linearGradient id="paint0_linear_691_958" x1="25" y1="0" x2="25" y2="51.2933" gradientUnits="userSpaceOnUse">
<stop stop-color="#A5B7E4"/>
<stop offset="1" stop-color="#100014"/>
</linearGradient>
<linearGradient id="paint1_linear_691_958" x1="25.7051" y1="12.3718" x2="25.7051" y2="39.1539" gradientUnits="userSpaceOnUse">
<stop stop-color="#FFD4B3"/>
<stop offset="1" stop-color="#FFDCC2"/>
</linearGradient>
<linearGradient id="paint2_linear_691_958" x1="25" y1="34.5375" x2="25" y2="51.8589" gradientUnits="userSpaceOnUse">
<stop stop-color="#806A6A"/>
<stop offset="1" stop-color="#665654"/>
</linearGradient>
<linearGradient id="paint3_linear_691_958" x1="26.3306" y1="25.6466" x2="26.3306" y2="5.12891" gradientUnits="userSpaceOnUse">
<stop stop-color="#E67240"/>
<stop offset="0.0001" stop-color="#E67240" stop-opacity="0.79"/>
<stop offset="0.0002"/>
</linearGradient>
<clipPath id="clip0_691_958">
<path d="M0 25C0 11.1929 11.1929 0 25 0V0C38.8071 0 50 11.1929 50 25V26.2933C50 40.1004 38.8071 51.2933 25 51.2933V51.2933C11.1929 51.2933 0 40.1004 0 26.2933V25Z" fill="white"/>
</clipPath>
</defs>
</svg>
